<?xml version="1.0" encoding="UTF-8"?>
<svg version="1.1" xmlns="http://www.w3.org/2000/svg" width="1563" height="1043">
<path d="M0 0 C515.79 0 1031.58 0 1563 0 C1563 344.19 1563 688.38 1563 1043 C1047.21 1043 531.42 1043 0 1043 C0 698.81 0 354.62 0 0 Z " fill="#FEFEFE" transform="translate(0,0)"/>
<path d="M0 0 C1.65 0.33 3.3 0.66 5 1 C12.33208426 22.84787622 19.56432983 44.72856703 26.75 66.625 C27.06880505 67.59634195 27.06880505 67.59634195 27.3940506 68.58730698 C34.41605526 89.98593962 41.33726166 111.41545479 48.15136719 132.88134766 C48.46619049 133.87111603 48.78101379 134.8608844 49.1053772 135.88064575 C49.68677797 137.70911589 50.26663102 139.53807924 50.84457397 141.36764526 C51.10098663 142.1738028 51.35739929 142.97996033 51.62158203 143.81054688 C51.84105499 144.50369995 52.06052795 145.19685303 52.28665161 145.91101074 C53.10429773 148.30542836 54.06031693 150.65079234 55 153 C108.13 153.33 161.26 153.66 216 154 C216.33 155.65 216.66 157.3 217 159 C210.52285499 164.41088281 203.7852335 169.32361549 196.87304688 174.15551758 C191.37746823 178.00564549 185.95516457 181.94467344 180.5625 185.9375 C170.69123456 193.2431194 160.73810452 200.43114073 150.77050781 207.60449219 C142.31406887 213.69238806 133.88114826 219.80873706 125.5 226 C113.10971535 235.15194375 100.66216317 244.22674203 88 253 C90.14809298 262.30479245 92.96337178 271.33197822 95.98046875 280.3828125 C96.47138238 281.8667588 96.96184961 283.35085283 97.4519043 284.83508301 C98.48946752 287.97538409 99.52941632 291.11487964 100.57138062 294.25372314 C103.29769636 302.46775277 106.00790756 310.6871037 108.71875 318.90625 C108.98884573 319.72473042 109.25894146 320.54321083 109.53722191 321.38649368 C115.15918297 338.4264853 120.65433043 355.50514545 126.08862305 372.60595703 C126.38597855 373.54108124 126.68333405 374.47620544 126.98970032 375.43966675 C127.55412792 377.21580468 128.11756133 378.99225895 128.67985535 380.76907349 C129.92314046 384.68463459 131.1898795 388.58801735 132.52978516 392.47167969 C132.76651443 393.16111664 133.00324371 393.85055359 133.24714661 394.56088257 C133.87285875 396.37039003 134.50883577 398.17633931 135.14575195 399.98193359 C135.95305141 402.83413019 136.18199052 405.05867672 136 408 C133.09921158 408.86794994 131.60860373 409.2936318 128.82763672 407.9519043 C128.11881348 407.41476807 127.40999023 406.87763184 126.6796875 406.32421875 C125.89722656 405.74349609 125.11476563 405.16277344 124.30859375 404.56445312 C123.10396484 403.63536133 123.10396484 403.63536133 121.875 402.6875 C120.26823513 401.48306496 118.66146453 400.27863757 117.0546875 399.07421875 C116.34812012 398.53369873 115.64155273 397.99317871 114.91357422 397.4362793 C113.31509905 396.23650519 111.66297294 395.10864863 110 394 C110 393.34 110 392.68 110 392 C110.66 391.67 111.32 391.34 112 391 C111.79503906 390.20335937 111.59007812 389.40671875 111.37890625 388.5859375 C111.10949219 387.52632812 110.84007812 386.46671875 110.5625 385.375 C110.16224609 383.80878906 110.16224609 383.80878906 109.75390625 382.2109375 C109.039493 379.16820335 108.51382554 376.08295325 108 373 C104.04 373.99 100.08 374.98 96 376 C96.66 378.64 97.32 381.28 98 384 C92.36425871 380.94699578 87.30915576 377.406792 82.1875 373.5625 C80.49533265 372.3039598 78.80261109 371.04616446 77.109375 369.7890625 C76.25666016 369.15516602 75.40394531 368.52126953 74.52539062 367.86816406 C70.68489079 365.02714466 66.81388565 362.22926569 62.9375 359.4375 C62.19975342 358.90584229 61.46200684 358.37418457 60.7019043 357.82641602 C59.21275768 356.75363889 57.72341901 355.68112828 56.23388672 354.60888672 C52.48640211 351.90987868 48.74346279 349.20458184 45 346.5 C43.50522119 345.42055511 42.01042952 344.34112804 40.515625 343.26171875 C36.69046546 340.49919584 32.86657315 337.73492595 29.04370117 334.96923828 C27.52973064 333.87569873 26.01429567 332.78418344 24.49731445 331.69482422 C20.94562954 329.14306737 17.41687 326.57034922 13.93359375 323.92578125 C13.29905273 323.45164795 12.66451172 322.97751465 12.01074219 322.48901367 C10.8315853 321.60685653 9.66093855 320.71315699 8.50097656 319.8059082 C6.19376227 318.09613574 4.52826048 317.02606548 1.625 316.8828125 C-2.40319585 318.59719347 -5.7000633 321.12915671 -9.1875 323.75 C-10.80582258 324.94293493 -12.42431692 326.13563686 -14.04296875 327.328125 C-14.86716309 327.93978516 -15.69135742 328.55144531 -16.54052734 329.18164062 C-20.3362593 331.9879352 -24.16863203 334.74267815 -28 337.5 C-29.50148237 338.58438583 -31.00278399 339.66902198 -32.50390625 340.75390625 C-35.48909108 342.91005299 -38.47621388 345.06347504 -41.46484375 347.21484375 C-48.37109503 352.18927649 -55.2641737 357.17939675 -62.11035156 362.23632812 C-63.69488348 363.4057865 -65.28145467 364.57248719 -66.87011719 365.73632812 C-70.9269961 368.71081502 -74.94525452 371.72238554 -78.91796875 374.80859375 C-80.50779886 376.01824709 -82.09764213 377.22788314 -83.6875 378.4375 C-84.40550781 379.01177734 -85.12351562 379.58605469 -85.86328125 380.17773438 C-89.4363424 382.86422136 -91.77193437 384.42703442 -96.33203125 383.9140625 C-99.38826204 383.15244588 -102.15246164 382.33478361 -105 381 C-105.16435547 381.97839844 -105.16435547 381.97839844 -105.33203125 382.9765625 C-105.49058594 383.85054687 -105.64914062 384.72453125 -105.8125 385.625 C-106.03873047 386.91277344 -106.03873047 386.91277344 -106.26953125 388.2265625 C-108.21975021 395.63113717 -111.89813912 399.01350693 -117.875 403.375 C-118.93654297 404.19291016 -118.93654297 404.19291016 -120.01953125 405.02734375 C-125.24787261 408.91208901 -125.24787261 408.91208901 -129.0078125 409.3515625 C-129.66523437 409.23554687 -130.32265625 409.11953125 -131 409 C-132.44151496 405.16898389 -131.52238185 402.66375945 -130.27197266 398.85351562 C-129.8656813 397.59832123 -129.45938995 396.34312683 -129.04078674 395.04989624 C-128.58207477 393.66861569 -128.12316049 392.2874023 -127.6640625 390.90625 C-127.19232828 389.46193433 -126.72151754 388.01731676 -126.25157166 386.57241821 C-124.98428589 382.68463474 -123.7043581 378.80112032 -122.4221077 374.91825104 C-121.09147546 370.88140281 -119.77271741 366.84068088 -118.45288086 362.80029297 C-116.32262144 356.28375622 -114.18587603 349.76938487 -112.04345703 343.25683594 C-108.95368558 333.86442723 -105.88023362 324.46676021 -102.81079102 315.06768799 C-100.7534532 308.76818418 -98.69250252 302.4698966 -96.62597656 296.17340088 C-95.70930244 293.3749466 -94.79785652 290.5748338 -93.88720703 287.77441406 C-92.51934689 283.57096916 -91.12307509 279.37775506 -89.71826172 275.18652344 C-88.96681409 272.91351336 -88.21566798 270.64040358 -87.46484375 268.3671875 C-87.10403214 267.30581573 -86.74322052 266.24444397 -86.37147522 265.15090942 C-86.04642502 264.15864349 -85.72137482 263.16637756 -85.38647461 262.14404297 C-85.09421494 261.27004852 -84.80195526 260.39605408 -84.50083923 259.49557495 C-83.92833945 256.64293079 -84.17194391 254.77453671 -85 252 C-86.45331456 250.36640802 -86.45331456 250.36640802 -88.40234375 249.125 C-89.1183374 248.62170166 -89.83433105 248.11840332 -90.57202148 247.59985352 C-91.35262939 247.07190186 -92.1332373 246.5439502 -92.9375 246 C-94.59398699 244.84278707 -96.25023042 243.68522545 -97.90625 242.52734375 C-98.75574219 241.94065918 -99.60523438 241.35397461 -100.48046875 240.74951172 C-104.33674281 238.07179274 -108.13670831 235.31812667 -111.9375 232.5625 C-113.04532837 231.76295898 -113.04532837 231.76295898 -114.17553711 230.94726562 C-120.44602666 226.41846573 -126.67069426 221.82879311 -132.89208984 217.23291016 C-140.4766884 211.63567826 -148.1158833 206.11591373 -155.76611328 200.60888672 C-159.51359784 197.90987872 -163.25655845 195.20461116 -167 192.5 C-168.49997854 191.41663696 -169.99997854 190.33330362 -171.5 189.25 C-174.5 187.08333333 -177.5 184.91666667 -180.5 182.75 C-181.24386963 182.2130249 -181.98773926 181.6760498 -182.75415039 181.12280273 C-184.24133133 180.0481977 -185.72751186 178.97220672 -187.21264648 177.89477539 C-191.1513307 175.04023598 -195.10880173 172.21769463 -199.09765625 169.43359375 C-199.92845703 168.84835937 -200.75925781 168.263125 -201.61523438 167.66015625 C-203.21316351 166.53535697 -204.81711557 165.41905231 -206.42773438 164.3125 C-207.14380859 163.80589844 -207.85988281 163.29929687 -208.59765625 162.77734375 C-209.23195557 162.33640381 -209.86625488 161.89546387 -210.51977539 161.44116211 C-212.33052258 159.67819977 -212.71304111 158.49040437 -213 156 C-212.505 155.01 -212.505 155.01 -212 154 C-158.54 154 -105.08 154 -50 154 C-49.01 150.37 -48.02 146.74 -47 143 C-46.40934226 141.06738311 -45.80333197 139.13924712 -45.16918945 137.22045898 C-44.84005554 136.21957245 -44.51092163 135.21868591 -44.17181396 134.18746948 C-43.82249817 133.13431549 -43.47318237 132.0811615 -43.11328125 130.99609375 C-42.73923157 129.85995636 -42.36518188 128.72381897 -41.97979736 127.55325317 C-40.9693838 124.48451371 -39.95677008 121.41651044 -38.94340897 118.34874344 C-37.0032775 112.47140813 -35.07170641 106.59125129 -33.140625 100.7109375 C-32.81509486 99.71999808 -32.81509486 99.71999808 -32.48298836 98.70903969 C-28.09695823 85.3519667 -23.82004495 71.9610474 -19.5625 58.5625 C-13.32437138 38.94127777 -6.80765133 19.43082509 0 0 Z " fill="#383838" transform="translate(779,214)"/>
<path d="M0 0 C3.25180978 2.87038477 5.63618639 6.0954028 7.96484375 9.734375 C8.35542969 10.30027344 8.74601563 10.86617187 9.1484375 11.44921875 C15.58431059 21.46843509 14.84779989 34.51970482 12.78125 45.77734375 C10.41449462 54.34975439 4.54305755 62.0551276 -2.87109375 66.9453125 C-15.83164851 73.98104223 -28.72203537 73.8463429 -42.60546875 70.02734375 C-50.69844562 67.24934699 -57.81069946 61.65411215 -62.47265625 54.421875 C-67.85304331 43.32960785 -68.68694583 30.76162291 -65.41015625 18.984375 C-61.80958088 8.60771682 -56.70110619 2.10759188 -47.03515625 -3.265625 C-32.41540018 -9.74212932 -13.17205196 -9.6229819 0 0 Z " fill="#383838" transform="translate(909.03515625,701.265625)"/>
<path d="M0 0 C3.5196947 -0.23413602 7.03737584 -0.37497976 10.5625 -0.5 C12.0484668 -0.60054687 12.0484668 -0.60054687 13.56445312 -0.703125 C20.84780163 -0.89670237 20.84780163 -0.89670237 24.18484497 1.70036316 C25.96145458 3.72271303 27.49679573 5.76944364 29 8 C29.86668874 9.10476156 30.73863799 10.20542823 31.6171875 11.30078125 C32.73480469 12.79158203 32.73480469 12.79158203 33.875 14.3125 C34.63554688 15.31925781 35.39609375 16.32601562 36.1796875 17.36328125 C38 20 38 20 39 23 C42.84884106 21.50133622 44.43821669 19.36259391 46.75 16 C47.46285156 15.02417969 48.17570313 14.04835938 48.91015625 13.04296875 C51.02727004 10.08567446 51.02727004 10.08567446 52.55859375 7.05078125 C54.49399827 3.79725951 55.78345644 2.05163319 59 0 C65.79093225 -1.25490653 73.175659 -0.97042982 80 0 C81.91206302 1.91206302 81.12785765 5.36126384 81.12939453 7.890625 C81.13202301 8.97108093 81.13202301 8.97108093 81.13470459 10.07336426 C81.13912288 12.46560034 81.13618521 14.8577631 81.1328125 17.25 C81.13348555 18.90527358 81.13445558 20.56054707 81.13571167 22.21582031 C81.13718861 25.68946267 81.13503421 29.16307937 81.13037109 32.63671875 C81.1246738 37.09932498 81.12795283 41.56187108 81.13394356 46.0244751 C81.13754927 49.4438523 81.13641054 52.86321515 81.13381577 56.28259277 C81.13314652 57.92850756 81.13397482 59.57442363 81.13629532 61.22033691 C81.13882202 63.51671831 81.13498103 65.81300099 81.12939453 68.109375 C81.12859894 69.41874023 81.12780334 70.72810547 81.12698364 72.07714844 C81 75 81 75 80 76 C77.3850232 76.10046239 74.80220911 76.13872551 72.1875 76.125 C71.09985352 76.13080078 71.09985352 76.13080078 69.99023438 76.13671875 C66.4215705 76.13018872 63.48646699 75.87161675 60 75 C59.67 61.8 59.34 48.6 59 35 C53.93878689 40.69386475 49.36470309 46.03240014 44.95703125 52.12890625 C43 54 43 54 40.53515625 54.5859375 C36.91607062 53.74947703 35.85119857 51.99192015 33.625 49.0625 C32.91601562 48.14597656 32.20703125 47.22945312 31.4765625 46.28515625 C31.10176758 45.7864502 30.72697266 45.28774414 30.34082031 44.77392578 C27.60222517 41.15072253 24.79234998 37.58183886 22 34 C22.00785522 35.59654419 22.00785522 35.59654419 22.01586914 37.2253418 C22.0340105 41.18561966 22.04546537 45.14589386 22.05493164 49.10620117 C22.05995099 50.81812152 22.06676785 52.53003761 22.07543945 54.24194336 C22.08761021 56.70687922 22.09325238 59.17175825 22.09765625 61.63671875 C22.10281754 62.39836838 22.10797882 63.16001801 22.11329651 63.94474792 C22.11369638 67.75849825 21.92590961 71.29315771 21 75 C14.33986708 75.87346005 7.72124218 76.40807542 1 76 C-0.66165207 74.33834793 -0.11959725 72.3348397 -0.12442017 70.11598206 C-0.12082489 69.41827194 -0.11722961 68.72056183 -0.11352539 68.00170898 C-0.11367142 67.27004517 -0.11381744 66.53838135 -0.1139679 65.7845459 C-0.11326867 63.35503216 -0.10547585 60.92559417 -0.09765625 58.49609375 C-0.0957921 56.81600486 -0.09436819 55.13591543 -0.09336853 53.45582581 C-0.08954307 49.02526357 -0.07971256 44.5947339 -0.06866455 40.16418457 C-0.05845103 35.64657024 -0.05387104 31.12895066 -0.04882812 26.61132812 C-0.03809031 17.74087107 -0.02101356 8.87043824 0 0 Z " fill="#383838" transform="translate(751,696)"/>
<path d="M0 0 C1.36208839 0.02118645 1.36208839 0.02118645 2.75169373 0.0428009 C4.67932638 0.07596419 6.60690621 0.11232659 8.53442383 0.15161133 C11.45983109 0.20635269 14.38478261 0.235252 17.31054688 0.26367188 C19.1862291 0.29916992 21.06188253 0.33623115 22.9375 0.375 C23.80347305 0.37936569 24.66944611 0.38373138 25.56166077 0.38822937 C33.5728556 0.60871564 41.23947345 3.16724094 46.93359375 9.01953125 C52.14654062 17.16476074 54.54184732 24.5987707 52.4375 34.30859375 C50.15998034 40.97387727 46.27916467 45.75609478 39.93359375 49.01953125 C41.51942292 53.88962202 44.32586855 57.54422939 47.37109375 61.58203125 C47.86158203 62.24138672 48.35207031 62.90074219 48.85742188 63.58007812 C49.33501953 64.22138672 49.81261719 64.86269531 50.3046875 65.5234375 C50.75956543 66.13590332 51.21444336 66.74836914 51.68310547 67.37939453 C52.69059232 68.7008113 53.75851155 69.97603103 54.84375 71.234375 C55.93359375 73.01953125 55.93359375 73.01953125 55.50170898 75.13110352 C55.31423096 75.75428467 55.12675293 76.37746582 54.93359375 77.01953125 C51.53821523 77.16528452 48.14364473 77.25374667 44.74609375 77.33203125 C43.78638672 77.37392578 42.82667969 77.41582031 41.83789062 77.45898438 C34.74020261 77.58178175 34.74020261 77.58178175 31.1484375 75.078125 C28.22182645 71.0366145 25.39607996 66.95792908 22.68359375 62.76953125 C21.61673745 61.13876519 20.54907287 59.50852753 19.48046875 57.87890625 C19.01479492 57.16186523 18.54912109 56.44482422 18.06933594 55.70605469 C17.04156236 54.06365243 17.04156236 54.06365243 15.93359375 53.01953125 C14.2674226 52.97889293 12.5997128 52.97681025 10.93359375 53.01953125 C10.94406738 53.63997314 10.95454102 54.26041504 10.96533203 54.8996582 C11.00690261 57.71040802 11.03292308 60.52109315 11.05859375 63.33203125 C11.07535156 64.30849609 11.09210937 65.28496094 11.109375 66.29101562 C11.11582031 67.22880859 11.12226562 68.16660156 11.12890625 69.1328125 C11.13937988 69.99688721 11.14985352 70.86096191 11.16064453 71.7512207 C10.93359375 74.01953125 10.93359375 74.01953125 8.93359375 77.01953125 C6.22317806 77.26972347 3.76126593 77.3460671 1.05859375 77.26953125 C0.33800781 77.264375 -0.38257813 77.25921875 -1.125 77.25390625 C-4.56158299 77.20327519 -7.78171226 77.085767 -11.06640625 76.01953125 C-11.92533101 71.60718278 -12.16216515 67.49557099 -12.08813477 63.00439453 C-12.07852722 62.330522 -12.06891968 61.65664948 -12.059021 60.96235657 C-12.02627466 58.75473767 -11.98585138 56.54733211 -11.9453125 54.33984375 C-11.92098749 52.80142956 -11.89714516 51.26300768 -11.87376404 49.72457886 C-11.81115981 45.69021787 -11.74202715 41.65599452 -11.67150879 37.62176514 C-11.60061061 33.49920886 -11.53592255 29.37655558 -11.47070312 25.25390625 C-11.34199613 17.17567377 -11.20638823 9.09757618 -11.06640625 1.01953125 C-7.65103805 -0.68815285 -3.75264348 -0.06176723 0 0 Z " fill="#383838" transform="translate(687.06640625,694.98046875)"/>
<path d="M0 0 C0.97195313 -0.03738281 1.94390625 -0.07476563 2.9453125 -0.11328125 C5.58905301 -0.14614543 8.02340487 -0.09785887 10.625 0.375 C12.57421875 2.3984375 12.57421875 2.3984375 13.625 5.375 C14.15996094 6.57125 14.69492187 7.7675 15.24609375 9 C15.85553118 10.45667928 16.46069545 11.91515076 17.0625 13.375 C17.39886475 14.18098633 17.73522949 14.98697266 18.08178711 15.81738281 C20.26269717 21.05311887 22.41630018 26.30002874 24.5703125 31.546875 C25.34755802 33.43763755 26.12518858 35.32824071 26.90319824 37.21868896 C27.4259146 38.48919481 27.94813177 39.75990615 28.46984863 41.03082275 C31.86765483 49.30013419 35.38824772 57.44868283 39.41796875 65.4296875 C40.78712198 68.77059862 41.32941833 71.78390333 41.625 75.375 C40.625 76.375 40.625 76.375 38.67553711 76.48852539 C37.8428833 76.48328857 37.01022949 76.47805176 36.15234375 76.47265625 C35.25322266 76.46943359 34.35410156 76.46621094 33.42773438 76.46289062 C32.00944336 76.45032227 32.00944336 76.45032227 30.5625 76.4375 C29.1384082 76.43073242 29.1384082 76.43073242 27.68554688 76.42382812 C25.33196935 76.4120011 22.97851523 76.39552025 20.625 76.375 C20.34785156 75.74851562 20.07070313 75.12203125 19.78515625 74.4765625 C19.42292969 73.65929687 19.06070313 72.84203125 18.6875 72 C18.32785156 71.18789063 17.96820312 70.37578125 17.59765625 69.5390625 C16.9680097 68.13816215 16.31187358 66.74874716 15.625 65.375 C12.25033655 64.12357053 8.89161063 64.26053486 5.328125 64.27734375 C4.12285156 64.28056641 2.91757812 64.28378906 1.67578125 64.28710938 C-0.20560547 64.29967773 -0.20560547 64.29967773 -2.125 64.3125 C-3.39472656 64.31701172 -4.66445313 64.32152344 -5.97265625 64.32617188 C-9.10681836 64.33795444 -12.24088541 64.35440584 -15.375 64.375 C-15.64054688 65.07367187 -15.90609375 65.77234375 -16.1796875 66.4921875 C-16.70949219 67.85730469 -16.70949219 67.85730469 -17.25 69.25 C-17.59804688 70.15492188 -17.94609375 71.05984375 -18.3046875 71.9921875 C-19.375 74.375 -19.375 74.375 -21.375 76.375 C-23.33032227 76.61791992 -23.33032227 76.61791992 -25.69140625 76.60546875 C-26.53767578 76.60353516 -27.38394531 76.60160156 -28.25585938 76.59960938 C-29.14080078 76.58736328 -30.02574219 76.57511719 -30.9375 76.5625 C-31.82630859 76.56185547 -32.71511719 76.56121094 -33.63085938 76.56054688 C-40.23478903 76.51521097 -40.23478903 76.51521097 -41.375 75.375 C-40.93918912 70.49248551 -39.80661783 66.45904358 -37.890625 61.96484375 C-37.63858307 61.3675647 -37.38654114 60.77028564 -37.12686157 60.15490723 C-36.30100525 58.20388169 -35.46328303 56.25821469 -34.625 54.3125 C-34.04382781 52.94760479 -33.46327105 51.58244738 -32.88330078 50.21704102 C-31.3662714 46.65288614 -29.83798019 43.09368618 -28.30554199 39.53613281 C-27.38064911 37.38811975 -26.45807757 35.23912363 -25.53613281 33.08984375 C-23.77900293 28.99526997 -22.01641546 24.90307602 -20.25 20.8125 C-19.97482544 20.17488739 -19.69965088 19.53727478 -19.4161377 18.88034058 C-18.63108388 17.0638509 -17.84294349 15.24869615 -17.0546875 13.43359375 C-16.60851074 12.40548584 -16.16233398 11.37737793 -15.70263672 10.31811523 C-11.31489891 0.5913445 -10.3689573 0.15007701 0 0 Z " fill="#383838" transform="translate(624.375,695.625)"/>
<path d="M0 0 C1.62134102 0.03037102 1.62134102 0.03037102 3.2754364 0.06135559 C4.44113663 0.09871323 5.60683685 0.13607086 6.80786133 0.17456055 C8.00220291 0.20100143 9.19654449 0.22744232 10.42707825 0.25468445 C14.2485172 0.34258046 18.06902018 0.45168671 21.88989258 0.5612793 C24.47774947 0.624524 27.06564044 0.68639051 29.65356445 0.74682617 C36.00365605 0.89814311 42.35310728 1.06688568 48.70239258 1.2487793 C48.72923245 4.22800523 48.74915295 7.20699224 48.76489258 10.1862793 C48.77327148 11.03641602 48.78165039 11.88655273 48.7902832 12.76245117 C48.79350586 13.57133789 48.79672852 14.38022461 48.80004883 15.21362305 C48.80528564 15.96248779 48.81052246 16.71135254 48.81591797 17.48291016 C48.70239258 19.2487793 48.70239258 19.2487793 47.70239258 20.2487793 C45.10879936 20.33729459 42.54199566 20.36403875 39.94848633 20.34643555 C39.1730397 20.3450206 38.39759308 20.34360565 37.59864807 20.34214783 C35.11235763 20.33653275 32.62615597 20.32397776 30.13989258 20.3112793 C28.45825325 20.30626624 26.77661252 20.30170299 25.0949707 20.29760742 C20.96407692 20.28655843 16.83324982 20.26928374 12.70239258 20.2487793 C13.03239258 23.2187793 13.36239258 26.1887793 13.70239258 29.2487793 C15.14859985 29.24092407 15.14859985 29.24092407 16.62402344 29.23291016 C20.18911822 29.21485812 23.75420894 29.20334656 27.31933594 29.19384766 C28.86459024 29.1888079 30.40983974 29.1819761 31.95507812 29.17333984 C34.17164286 29.16125854 36.38814476 29.15554757 38.60473633 29.15112305 C39.29953598 29.14596176 39.99433563 29.14080048 40.71018982 29.13548279 C42.37468588 29.13528653 44.03904756 29.18688801 45.70239258 29.2487793 C47.58791787 31.13430459 46.83485947 33.82646761 46.83911133 36.33081055 C46.83524414 37.12874023 46.83137695 37.92666992 46.82739258 38.7487793 C46.83319336 39.94567383 46.83319336 39.94567383 46.83911133 41.16674805 C46.82900025 47.12217162 46.82900025 47.12217162 45.70239258 48.2487793 C43.32670738 48.337176 40.98030584 48.36408235 38.60473633 48.34643555 C37.54144859 48.34431313 37.54144859 48.34431313 36.4566803 48.34214783 C34.18437545 48.33653372 31.91216782 48.32397893 29.63989258 48.3112793 C28.10278462 48.30626611 26.56567513 48.30170289 25.02856445 48.29760742 C21.25313616 48.28655972 17.47778087 48.26928571 13.70239258 48.2487793 C13.37239258 51.5487793 13.04239258 54.8487793 12.70239258 58.2487793 C24.91239258 58.2487793 37.12239258 58.2487793 49.70239258 58.2487793 C51.21073591 64.28215261 50.21472097 70.10083857 49.70239258 76.2487793 C37.70452055 77.04881967 25.76104288 77.40885959 13.73681641 77.37915039 C11.08270881 77.37366103 8.42876154 77.37920469 5.7746582 77.38549805 C4.08260054 77.38483927 2.39054297 77.38356228 0.69848633 77.3815918 C-0.0929628 77.38361603 -0.88441193 77.38564026 -1.69984436 77.38772583 C-7.18257676 77.36380996 -7.18257676 77.36380996 -8.29760742 76.2487793 C-8.40783327 73.99513728 -8.44675639 71.73799361 -8.45874023 69.48168945 C-8.46370514 68.77435165 -8.46867004 68.06701385 -8.4737854 67.33824158 C-8.4884423 64.98809857 -8.49521502 62.63802308 -8.50073242 60.2878418 C-8.50648121 58.65977984 -8.51223897 57.03171791 -8.51800537 55.40365601 C-8.52852557 51.98549076 -8.53436147 48.5673491 -8.5378418 45.14916992 C-8.54332707 40.76511582 -8.5673513 36.38137223 -8.59581375 31.99741554 C-8.61442105 28.63285405 -8.61964472 25.26836761 -8.62117767 21.903759 C-8.62420934 20.28739093 -8.63225513 18.67102434 -8.64536285 17.05470657 C-8.66238321 14.79444912 -8.66055331 12.53495341 -8.65405273 10.2746582 C-8.65769836 8.98749908 -8.66134399 7.70033997 -8.6651001 6.37417603 C-8.29760742 3.2487793 -8.29760742 3.2487793 -7.10643005 1.32521057 C-4.61954462 -0.15473622 -2.88703684 -0.07402659 0 0 Z " fill="#383838" transform="translate(1048.297607421875,694.751220703125)"/>
<path d="M0 0 C1.42578125 1.28125 1.42578125 1.28125 2.42578125 4.28125 C1.31640625 6.4375 1.31640625 6.4375 -0.32421875 8.78125 C-0.8553125 9.5546875 -1.38640625 10.328125 -1.93359375 11.125 C-3.38883299 13.03760014 -4.73223834 14.7387786 -6.57421875 16.28125 C-9.39513316 16.05252721 -11.67524325 15.24316822 -14.3203125 14.24609375 C-17.81007436 13.21131442 -20.69251363 13.01451403 -24.32421875 13.03125 C-25.4534375 13.02609375 -26.58265625 13.0209375 -27.74609375 13.015625 C-30.7087931 12.99056697 -30.7087931 12.99056697 -32.57421875 15.28125 C-32.25380478 17.88405568 -32.25380478 17.88405568 -31.57421875 20.28125 C-30.630625 20.45140625 -29.68703125 20.6215625 -28.71484375 20.796875 C-3.67998873 25.52232956 -3.67998873 25.52232956 4.42578125 35.28125 C7.72721749 40.83655137 8.25600784 46.45498834 6.88671875 52.765625 C5.15842546 59.18500006 3.03852856 63.16616885 -2.19921875 67.40625 C-10.06638241 71.77689648 -18.04735722 72.86603623 -26.94921875 72.84375 C-28.46213501 72.84012451 -28.46213501 72.84012451 -30.00561523 72.83642578 C-38.15886432 72.63511099 -43.95005241 71.29505866 -50.57421875 66.28125 C-51.26 65.76691406 -51.94578125 65.25257813 -52.65234375 64.72265625 C-55.14501235 62.56122064 -56.51665753 61.06792001 -56.76171875 57.71875 C-55.22382745 54.56202575 -53.13779567 52.66171429 -50.57421875 50.28125 C-49.54608264 48.96949014 -48.53337443 47.6442607 -47.57421875 46.28125 C-43.85547132 46.84984583 -41.3333374 47.89918649 -38.13671875 49.84375 C-31.94936707 53.04442515 -25.40317782 53.5283521 -18.57421875 52.28125 C-16.16892568 50.38433331 -16.16892568 50.38433331 -14.57421875 48.28125 C-15.15366807 46.28261244 -15.15366807 46.28261244 -16.57421875 44.28125 C-20.7772481 42.57300123 -24.70563276 41.96511347 -29.19921875 41.53125 C-37.26468177 40.44617182 -45.12263914 38.00724848 -50.78515625 31.89453125 C-55.25642954 25.36334821 -55.43635568 19.01354057 -54.57421875 11.28125 C-52.82560732 5.49678093 -50.01977382 0.45602507 -44.77734375 -2.7578125 C-30.37128901 -9.04130446 -13.3015425 -8.59230075 0 0 Z " fill="#383838" transform="translate(520.57421875,700.71875)"/>
<path d="M0 0 C7.59 0 15.18 0 23 0 C28.81768567 15.21548561 34.24855146 30.42026254 39 46 C40.86681464 41.78393548 42.47814633 37.68948923 43.75 33.25 C45.48891637 27.46256407 47.47085192 21.79417838 49.5625 16.125 C50.00190918 14.93052246 50.00190918 14.93052246 50.45019531 13.71191406 C52.17739164 9.06776159 54.04270722 4.5670165 56 0 C63.26 0 70.52 0 78 0 C76.87623502 8.9901198 76.87623502 8.9901198 75.36328125 12.33984375 C75.03682617 13.08290771 74.71037109 13.82597168 74.37402344 14.59155273 C74.0237207 15.36571533 73.67341797 16.13987793 73.3125 16.9375 C70.71369821 22.87556678 68.29802245 28.7880633 66.25 34.9375 C62.29195574 46.69436813 57.09103472 58.00395471 52.11987305 69.35888672 C50.94545066 72.0316432 50.94545066 72.0316432 50 75 C45.5621439 76.11165232 41.23043614 76.11527763 36.6875 76.0625 C35.94693359 76.05798828 35.20636719 76.05347656 34.44335938 76.04882812 C32.62887101 76.03712175 30.81442466 76.01918898 29 76 C26.11070354 70.43636568 23.72187411 64.87979087 21.5625 59 C17.1901169 47.30333674 12.47472064 35.75208606 7.75160217 24.19406128 C7.22486176 22.90386988 6.69907361 21.61328924 6.17430115 20.32229614 C5.04230061 17.5387183 3.8986214 14.76206984 2.72070312 11.99755859 C2.35396484 11.12566895 1.98722656 10.2537793 1.609375 9.35546875 C1.13709473 8.25755005 1.13709473 8.25755005 0.65527344 7.13745117 C0 5 0 5 0 0 Z " fill="#383838" transform="translate(920,696)"/>
<path d="M0 0 C8.06652174 -0.02312737 16.13302972 -0.04091709 24.19957638 -0.05181217 C27.94483037 -0.05704014 31.69006176 -0.06413622 35.43530273 -0.07543945 C39.04681687 -0.08627141 42.65830921 -0.09227749 46.26983833 -0.09487724 C47.65060329 -0.09673094 49.031367 -0.10035049 50.41212273 -0.10573006 C52.33975952 -0.11294447 54.26741807 -0.11340809 56.19506836 -0.11352539 C57.29427109 -0.115746 58.39347382 -0.11796661 59.52598572 -0.12025452 C62 0 62 0 63 1 C63.10002455 3.65653443 63.13877463 6.28129272 63.125 8.9375 C63.12886719 9.67935547 63.13273438 10.42121094 63.13671875 11.18554688 C63.12663501 16.74672998 63.12663501 16.74672998 62 19 C55.4 19 48.8 19 42 19 C42.00523682 20.69116943 42.01047363 22.38233887 42.01586914 24.12475586 C42.03196803 29.70072196 42.04347285 35.27668473 42.05181217 40.85266781 C42.05703975 44.23471813 42.06413511 47.6167434 42.07543945 50.9987793 C42.08834267 54.88329777 42.09322924 58.76780597 42.09765625 62.65234375 C42.10281754 63.87211411 42.10797882 65.09188446 42.11329651 66.34861755 C42.11337204 67.46970413 42.11344757 68.59079071 42.11352539 69.74584961 C42.115746 70.73846298 42.11796661 71.73107635 42.12025452 72.75376892 C42 75 42 75 41 76 C38.21900528 76.10048227 35.46825072 76.13870954 32.6875 76.125 C31.52831055 76.13080078 31.52831055 76.13080078 30.34570312 76.13671875 C29.59611328 76.13542969 28.84652344 76.13414062 28.07421875 76.1328125 C27.38932373 76.13168457 26.70442871 76.13055664 25.9987793 76.12939453 C23.89695926 75.99332947 22.02372945 75.57012045 20 75 C20.00523682 73.94312988 20.01047363 72.88625977 20.01586914 71.79736328 C20.03430973 67.78272386 20.04557082 63.76808795 20.05493164 59.75341797 C20.05988444 58.03335943 20.06664849 56.31330492 20.07543945 54.59326172 C20.13464272 42.68992328 19.79631569 30.87740312 19 19 C17.80157471 19.0095874 16.60314941 19.0191748 15.3684082 19.02905273 C14.6541568 19.03460175 13.9399054 19.04015076 13.20401001 19.04586792 C11.71565553 19.0581438 10.2273243 19.07331861 8.73901367 19.09008789 C5.55618187 19.10246624 3.03943678 19.01314559 0 18 C-1.12536783 12.65450281 -2.53466037 5.06932075 0 0 Z " fill="#373737" transform="translate(529,696)"/>
<path d="M0 0 C6.93 0 13.86 0 21 0 C21.02255193 9.761514 21.04091561 19.52301083 21.05181217 29.28454494 C21.05704078 33.81674094 21.06413801 38.34891827 21.07543945 42.88110352 C21.08626914 47.2512283 21.09227701 51.62133508 21.09487724 55.99147224 C21.09673135 57.66250963 21.10035168 59.33354597 21.10573006 61.00457573 C21.11294159 63.33697551 21.1139909 65.66929993 21.11352539 68.00170898 C21.11712067 68.6994191 21.12071594 69.39712921 21.12442017 70.11598206 C21.11405216 74.88594784 21.11405216 74.88594784 20 76 C17.57172387 76.10068462 15.17801589 76.1387176 12.75 76.125 C12.08097656 76.12886719 11.41195312 76.13273438 10.72265625 76.13671875 C6.93039914 76.12926834 3.76120622 75.75224124 0 75 C0 50.25 0 25.5 0 0 Z " fill="#383838" transform="translate(1006,696)"/>
<path d="M0 0 C5.0974049 4.5046834 9.12474555 8.99729391 10.0234375 15.98828125 C10.14119986 24.12566046 8.52430759 29.11267127 3.1875 35.25 C-1.45278528 39.19424249 -4.86572614 39.77990659 -10.85546875 39.61328125 C-17.15809394 39.00205687 -20.94584517 35.37501339 -24.82421875 30.6796875 C-28.24389536 25.38412529 -28.80901453 19.74702887 -27.6875 13.625 C-25.79176758 6.82196023 -22.4280901 2.88821133 -16.3125 -0.625 C-10.76281434 -2.47489522 -5.27990161 -2.59014041 0 0 Z " fill="#FEFEFE" transform="translate(891.3125,714.625)"/>
<path d="M0 0 C2.04248138 2.04248138 2.65158188 3.26351617 3.69580078 5.89892578 C4.01598175 6.6996048 4.33616272 7.50028381 4.66604614 8.32522583 C5.00570404 9.18985443 5.34536194 10.05448303 5.6953125 10.9453125 C6.04761932 11.8303244 6.39992615 12.7153363 6.76290894 13.62716675 C7.88846842 16.45787533 9.0068048 19.29137535 10.125 22.125 C10.88624521 24.04315675 11.64795811 25.96112796 12.41015625 27.87890625 C14.27887396 32.58380068 16.14111803 37.29121133 18 42 C15.2535879 43.41344652 12.76233029 44.42212293 9.75 45.125 C8.5125 45.41375 7.275 45.7025 6 46 C5.65066406 44.92878906 5.30132813 43.85757813 4.94140625 42.75390625 C4.48192855 41.35671896 4.02228454 39.95958635 3.5625 38.5625 C3.21735352 37.50192383 3.21735352 37.50192383 2.86523438 36.41992188 C1.92578853 32.93693205 1.92578853 32.93693205 0 30 C-1.65 35.28 -3.3 40.56 -5 46 C-8.96 45.01 -12.92 44.02 -17 43 C-14.45617074 34.94759082 -11.37727885 27.1259794 -8.27441406 19.27685547 C-7.36670185 16.97899334 -6.4644037 14.67905352 -5.5625 12.37890625 C-4.98729993 10.9191444 -4.41179059 9.45950437 -3.8359375 8 C-3.56615082 7.31156006 -3.29636414 6.62312012 -3.0184021 5.91381836 C-1.11488228 1.11488228 -1.11488228 1.11488228 0 0 Z " fill="#FDFDFD" transform="translate(781,255)"/>
<path d="M0 0 C3.49890004 2.11391877 4.70578686 3.11736059 6 7 C6.3666991 11.9504378 6.30511226 15.16180512 3 19 C-0.96509316 21.36380554 -3.08603529 22.12392742 -7.6875 21.5 C-11.53260329 19.75882115 -13.01593554 18.73004118 -15 15 C-15.82464158 10.31569576 -15.66873916 7.06998265 -13.125 3 C-9.17310463 -0.71943094 -5.22968404 -0.66838794 0 0 Z " fill="#383838" transform="translate(813,807)"/>
<path d="M0 0 C2.8293078 2.8293078 2.73345379 5.06844341 3 9 C2.625 11.8125 2.625 11.8125 1 14 C-5.45773916 16.89088101 -12.19534242 15.86134906 -19 15 C-19 9.72 -19 4.44 -19 -1 C-12.78193938 -2.55451515 -5.7853028 -3.25423282 0 0 Z " fill="#FEFEFE" transform="translate(716,715)"/>
<path d="M0 0 C2.0625 -0.061875 4.125 -0.12375 6.25 -0.1875 C7.99023438 -0.23970703 7.99023438 -0.23970703 9.765625 -0.29296875 C13.25480857 0.02308049 14.61569922 0.47066876 17 3 C17.49125459 6.85985753 17.56021138 9.08965651 15.5 12.4375 C15.005 12.953125 14.51 13.46875 14 14 C15.32 16.31 16.64 18.62 18 21 C15.25 21.375 15.25 21.375 12 21 C9.8125 18.0625 9.8125 18.0625 8 15 C7.01 14.67 6.02 14.34 5 14 C5 16.31 5 18.62 5 21 C3.35 21 1.7 21 0 21 C0 14.07 0 7.14 0 0 Z " fill="#383838" transform="translate(973,807)"/>
<path d="M0 0 C1.65 0 3.3 0 5 0 C7.23828125 2.40625 7.23828125 2.40625 9.3125 5.5 C10.00988281 6.5209375 10.70726562 7.541875 11.42578125 8.59375 C11.94527344 9.3878125 12.46476563 10.181875 13 11 C13.33 7.37 13.66 3.74 14 0 C15.32 0 16.64 0 18 0 C18 6.93 18 13.86 18 21 C13 20 13 20 10.98046875 17.71484375 C10.38878906 16.79832031 9.79710937 15.88179687 9.1875 14.9375 C8.58292969 14.01839844 7.97835937 13.09929688 7.35546875 12.15234375 C6.90816406 11.44207031 6.46085938 10.73179687 6 10 C5.67 13.63 5.34 17.26 5 21 C3.35 21 1.7 21 0 21 C0 14.07 0 7.14 0 0 Z " fill="#383838" transform="translate(683,807)"/>
<path d="M0 0 C0.99 0.66 1.98 1.32 3 2 C2.34 3.32 1.68 4.64 1 6 C-1.01822917 5.73958333 -3.03645833 5.47916667 -5.0546875 5.21875 C-7.00498344 4.9627515 -7.00498344 4.9627515 -9 5 C-10.20566886 10.17584682 -10.20566886 10.17584682 -8.875 15 C-6.46618158 16.28470316 -4.69027121 16.2181301 -2 16 C-1.67 15.01 -1.34 14.02 -1 13 C-2.65 13 -4.3 13 -6 13 C-6 11.68 -6 10.36 -6 9 C-2.7 9 0.6 9 4 9 C4.48699272 17.40062435 4.48699272 17.40062435 2.375 20 C-2.13085398 21.89720168 -4.89836192 22.29874931 -9.6875 21 C-13.88614951 18.46496633 -14.74624881 16.70156696 -16 12 C-16 7.73563431 -15.40980653 5.62131958 -13.0625 2.0625 C-8.81632667 -0.79716775 -4.99620813 -0.80447419 0 0 Z " fill="#383838" transform="translate(617,807)"/>
<path d="M0 0 C0.91007813 0.00902344 1.82015625 0.01804687 2.7578125 0.02734375 C3.45648437 0.03894531 4.15515625 0.05054688 4.875 0.0625 C5.9375 1.9375 5.9375 1.9375 6.875 4.0625 C6.545 4.7225 6.215 5.3825 5.875 6.0625 C2.905 5.7325 -0.065 5.4025 -3.125 5.0625 C-4.86166727 7.26082713 -4.86166727 7.26082713 -6.125 10.0625 C-5.46219617 12.49278072 -4.9239028 14.2635972 -3.125 16.0625 C-0.79202567 16.10342937 1.54205225 16.10491723 3.875 16.0625 C3.875 15.0725 3.875 14.0825 3.875 13.0625 C2.225 13.0625 0.575 13.0625 -1.125 13.0625 C-1.125 11.7425 -1.125 10.4225 -1.125 9.0625 C1.845 9.0625 4.815 9.0625 7.875 9.0625 C7.95590971 10.68668745 8.01414995 12.31201745 8.0625 13.9375 C8.11470703 15.29488281 8.11470703 15.29488281 8.16796875 16.6796875 C8.07128906 17.46601562 7.97460938 18.25234375 7.875 19.0625 C4.58415707 21.25639529 2.78232442 21.75604318 -1.125 22.0625 C-4.75553438 21.33639312 -6.70334691 20.42867242 -9.5 18 C-11.73215752 13.96494603 -11.95963322 10.5793386 -11.125 6.0625 C-7.93946062 0.96563698 -5.82659865 -0.07469998 0 0 Z " fill="#383838" transform="translate(776.125,806.9375)"/>
<path d="M0 0 C5.445 1.485 5.445 1.485 11 3 C10.39022935 9.70747711 8.21185 15.64984999 6 22 C2.04 21.01 -1.92 20.02 -6 19 C-4.43489934 12.36695433 -2.93635036 6.15235313 0 0 Z " fill="#FDFDFD" transform="translate(746,358)"/>
<path d="M0 0 C5.28 0 10.56 0 16 0 C16 1.32 16 2.64 16 4 C12.37 4 8.74 4 5 4 C5 5.32 5 6.64 5 8 C7.97 8 10.94 8 14 8 C14 9.65 14 11.3 14 13 C11.03 13 8.06 13 5 13 C5 14.32 5 15.64 5 17 C8.63 17 12.26 17 16 17 C16 18.32 16 19.64 16 21 C10.72 21 5.44 21 0 21 C0 14.07 0 7.14 0 0 Z " fill="#373737" transform="translate(833,807)"/>
<path d="M0 0 C1.6256807 0.30893932 3.25052748 0.6222695 4.875 0.9375 C5.77992188 1.11152344 6.68484375 1.28554688 7.6171875 1.46484375 C10 2 10 2 12 3 C8.92482916 15.66970387 8.92482916 15.66970387 7 21 C-1.03571429 20.19642857 -1.03571429 20.19642857 -5 18 C-3.75971762 11.82777121 -2.10396411 5.93317878 0 0 Z " fill="#FDFDFD" transform="translate(686,556)"/>
<path d="M0 0 C0.86500888 2.60101286 1.71726928 5.20506411 2.5625 7.8125 C2.80935547 8.55048828 3.05621094 9.28847656 3.31054688 10.04882812 C5.11328125 15.66015625 5.11328125 15.66015625 4 19 C1.49609375 19.94921875 1.49609375 19.94921875 -1.5625 20.6875 C-2.57441406 20.93886719 -3.58632813 21.19023438 -4.62890625 21.44921875 C-5.41136719 21.63097656 -6.19382812 21.81273437 -7 22 C-7.83857688 19.39741676 -8.67103344 16.79314353 -9.5 14.1875 C-9.85771484 13.08051758 -9.85771484 13.08051758 -10.22265625 11.95117188 C-11.19940136 8.86744804 -12 6.25504191 -12 3 C-10.56445975 2.49440092 -9.1264798 1.9957251 -7.6875 1.5 C-6.88699219 1.2215625 -6.08648438 0.943125 -5.26171875 0.65625 C-3 0 -3 0 0 0 Z " fill="#FEFEFE" transform="translate(863,508)"/>
<path d="M0 0 C0.83661862 2.7907207 1.66942737 5.58248012 2.5 8.375 C2.73847656 9.1690625 2.97695313 9.963125 3.22265625 10.78125 C3.44824219 11.54179687 3.67382812 12.30234375 3.90625 13.0859375 C4.22045898 14.1385376 4.22045898 14.1385376 4.54101562 15.21240234 C5 17 5 17 5 19 C3.56445975 19.50559908 2.1264798 20.0042749 0.6875 20.5 C-0.11300781 20.7784375 -0.91351562 21.056875 -1.73828125 21.34375 C-4 22 -4 22 -7 22 C-7.86500888 19.39898714 -8.71726928 16.79493589 -9.5625 14.1875 C-9.80935547 13.44951172 -10.05621094 12.71152344 -10.31054688 11.95117188 C-12.11328125 6.33984375 -12.11328125 6.33984375 -11 3 C-9.00390625 2.05078125 -9.00390625 2.05078125 -6.5625 1.3125 C-5.75941406 1.06113281 -4.95632813 0.80976563 -4.12890625 0.55078125 C-2 0 -2 0 0 0 Z " fill="#FDFDFD" transform="translate(851,468)"/>
<path d="M0 0 C5.445 1.485 5.445 1.485 11 3 C10.43408715 9.11185874 9.56816298 15.36979654 7 21 C3.44757118 22.18414294 2.30169438 21.69535532 -1.1875 20.5625 C-2.53908203 20.13130859 -2.53908203 20.13130859 -3.91796875 19.69140625 C-4.60503906 19.46324219 -5.29210937 19.23507812 -6 19 C-5.19291375 16.01933931 -4.37842846 13.04075125 -3.5625 10.0625 C-3.33240234 9.21236328 -3.10230469 8.36222656 -2.86523438 7.48632812 C-2.64287109 6.67744141 -2.42050781 5.86855469 -2.19140625 5.03515625 C-1.98717041 4.2862915 -1.78293457 3.53742676 -1.57250977 2.76586914 C-1 1 -1 1 0 0 Z " fill="#FDFDFD" transform="translate(722,437)"/>
<path d="M0 0 C0.86500888 2.60101286 1.71726928 5.20506411 2.5625 7.8125 C2.80935547 8.55048828 3.05621094 9.28847656 3.31054688 10.04882812 C5.11328125 15.66015625 5.11328125 15.66015625 4 19 C1.49609375 19.94921875 1.49609375 19.94921875 -1.5625 20.6875 C-2.57441406 20.93886719 -3.58632813 21.19023437 -4.62890625 21.44921875 C-5.41136719 21.63097656 -6.19382812 21.81273437 -7 22 C-7.83857688 19.39741676 -8.67103344 16.79314353 -9.5 14.1875 C-9.85771484 13.08051758 -9.85771484 13.08051758 -10.22265625 11.95117188 C-11.19940136 8.86744804 -12 6.25504191 -12 3 C-10.56445975 2.49440092 -9.1264798 1.9957251 -7.6875 1.5 C-6.88699219 1.2215625 -6.08648438 0.943125 -5.26171875 0.65625 C-3 0 -3 0 0 0 Z " fill="#FEFEFE" transform="translate(839,429)"/>
<path d="M0 0 C0.83661862 2.7907207 1.66942737 5.58248012 2.5 8.375 C2.73847656 9.1690625 2.97695313 9.963125 3.22265625 10.78125 C3.44824219 11.54179687 3.67382812 12.30234375 3.90625 13.0859375 C4.22045898 14.1385376 4.22045898 14.1385376 4.54101562 15.21240234 C5 17 5 17 5 19 C3.56445975 19.50559908 2.1264798 20.0042749 0.6875 20.5 C-0.11300781 20.7784375 -0.91351562 21.056875 -1.73828125 21.34375 C-4 22 -4 22 -7 22 C-7.86500888 19.39898714 -8.71726928 16.79493589 -9.5625 14.1875 C-9.80935547 13.44951172 -10.05621094 12.71152344 -10.31054688 11.95117188 C-12.11328125 6.33984375 -12.11328125 6.33984375 -11 3 C-9.00390625 2.05078125 -9.00390625 2.05078125 -6.5625 1.3125 C-5.75941406 1.06113281 -4.95632813 0.80976563 -4.12890625 0.55078125 C-2 0 -2 0 0 0 Z " fill="#FDFDFD" transform="translate(827,389)"/>
<path d="M0 0 C0.83661862 2.7907207 1.66942737 5.58248012 2.5 8.375 C2.73847656 9.1690625 2.97695313 9.963125 3.22265625 10.78125 C3.44824219 11.54179687 3.67382812 12.30234375 3.90625 13.0859375 C4.22045898 14.1385376 4.22045898 14.1385376 4.54101562 15.21240234 C5 17 5 17 5 19 C3.56445975 19.50559908 2.1264798 20.0042749 0.6875 20.5 C-0.11300781 20.7784375 -0.91351562 21.056875 -1.73828125 21.34375 C-4 22 -4 22 -7 22 C-7.86500888 19.39898714 -8.71726928 16.79493589 -9.5625 14.1875 C-9.80935547 13.44951172 -10.05621094 12.71152344 -10.31054688 11.95117188 C-12.11328125 6.33984375 -12.11328125 6.33984375 -11 3 C-9.00390625 2.05078125 -9.00390625 2.05078125 -6.5625 1.3125 C-5.75941406 1.06113281 -4.95632813 0.80976563 -4.12890625 0.55078125 C-2 0 -2 0 0 0 Z " fill="#FDFDFD" transform="translate(803,310)"/>
<path d="M0 0 C0.83661862 2.7907207 1.66942737 5.58248012 2.5 8.375 C2.73847656 9.1690625 2.97695313 9.963125 3.22265625 10.78125 C3.44824219 11.54179688 3.67382812 12.30234375 3.90625 13.0859375 C4.22045898 14.1385376 4.22045898 14.1385376 4.54101562 15.21240234 C5 17 5 17 5 19 C3.56445975 19.50559908 2.1264798 20.0042749 0.6875 20.5 C-0.11300781 20.7784375 -0.91351562 21.056875 -1.73828125 21.34375 C-4 22 -4 22 -7 22 C-7.86500888 19.39898714 -8.71726928 16.79493589 -9.5625 14.1875 C-9.80935547 13.44951172 -10.05621094 12.71152344 -10.31054688 11.95117188 C-12.11328125 6.33984375 -12.11328125 6.33984375 -11 3 C-9.00390625 2.05078125 -9.00390625 2.05078125 -6.5625 1.3125 C-5.75941406 1.06113281 -4.95632813 0.80976562 -4.12890625 0.55078125 C-2 0 -2 0 0 0 Z " fill="#FDFDFD" transform="translate(875,547)"/>
<path d="M0 0 C1.81495662 0.44850658 3.62693134 0.90909571 5.4375 1.375 C6.95150391 1.75785156 6.95150391 1.75785156 8.49609375 2.1484375 C11 3 11 3 12 5 C11.33288708 7.74160003 10.5947774 10.37648126 9.75 13.0625 C9.53214844 13.80822266 9.31429687 14.55394531 9.08984375 15.32226562 C8.49159699 17.24820037 7.75398495 19.12953735 7 21 C3.52128379 22.15957207 2.65780355 21.77456651 -0.6875 20.5625 C-1.89986328 20.13130859 -1.89986328 20.13130859 -3.13671875 19.69140625 C-3.75160156 19.46324219 -4.36648438 19.23507812 -5 19 C-4.39297368 12.3227105 -2.22368606 6.29872004 0 0 Z " fill="#FEFEFE" transform="translate(698,516)"/>
<path d="M0 0 C0.86500888 2.60101286 1.71726928 5.20506411 2.5625 7.8125 C2.80935547 8.55048828 3.05621094 9.28847656 3.31054688 10.04882812 C5.11328125 15.66015625 5.11328125 15.66015625 4 19 C1.49609375 19.94921875 1.49609375 19.94921875 -1.5625 20.6875 C-2.57441406 20.93886719 -3.58632813 21.19023437 -4.62890625 21.44921875 C-5.41136719 21.63097656 -6.19382812 21.81273437 -7 22 C-7.83661862 19.2092793 -8.66942737 16.41751988 -9.5 13.625 C-9.73847656 12.8309375 -9.97695313 12.036875 -10.22265625 11.21875 C-10.44824219 10.45820313 -10.67382812 9.69765625 -10.90625 8.9140625 C-11.11572266 8.2123291 -11.32519531 7.5105957 -11.54101562 6.78759766 C-12 5 -12 5 -12 3 C-10.56445975 2.49440092 -9.1264798 1.9957251 -7.6875 1.5 C-6.88699219 1.2215625 -6.08648438 0.943125 -5.26171875 0.65625 C-3 0 -3 0 0 0 Z " fill="#FDFDFD" transform="translate(815,350)"/>
<path d="M0 0 C4.3177458 0.50797009 8.03302114 1.19682779 12 3 C10.75971762 9.17222879 9.10396411 15.06682122 7 21 C2.65636456 20.48898407 -0.98331946 19.70656894 -5 18 C-1.92482916 5.33029613 -1.92482916 5.33029613 0 0 Z " fill="#FDFDFD" transform="translate(757,319)"/>
<path d="M0 0 C1.6266848 0.28211877 3.25132896 0.57602375 4.875 0.875 C5.77992188 1.03742188 6.68484375 1.19984375 7.6171875 1.3671875 C10 2 10 2 12 4 C10.35 9.28 8.7 14.56 7 20 C1.08514363 21.18297127 0.11148947 20.50563209 -5 18 C-3.9007105 11.68878497 -2.41862058 5.93661416 0 0 Z " fill="#FDFDFD" transform="translate(710,477)"/>
<path d="M0 0 C1.69752187 0.25245197 3.38471545 0.57645775 5.0625 0.9375 C5.98160156 1.13214844 6.90070312 1.32679688 7.84765625 1.52734375 C8.91306641 1.76130859 8.91306641 1.76130859 10 2 C11.63129887 6.06285757 10.29968777 9.20102184 9.0625 13.25 C8.68222656 14.51328125 8.30195312 15.7765625 7.91015625 17.078125 C7.60980469 18.04234375 7.30945313 19.0065625 7 20 C2.02398374 21.71050559 -1.42616295 20.00885647 -6 18 C-5.19140353 15.186323 -4.37832997 12.37407931 -3.5625 9.5625 C-3.33240234 8.76005859 -3.10230469 7.95761719 -2.86523438 7.13085938 C-1.11328125 1.11328125 -1.11328125 1.11328125 0 0 Z " fill="#FDFDFD" transform="translate(734,398)"/>
<path d="M0 0 C1.65 0 3.3 0 5 0 C5 2.64 5 5.28 5 8 C7.64 8 10.28 8 13 8 C13 5.36 13 2.72 13 0 C14.32 0 15.64 0 17 0 C17 6.93 17 13.86 17 21 C15.68 21 14.36 21 13 21 C13 18.36 13 15.72 13 13 C10.36 13 7.72 13 5 13 C5 15.64 5 18.28 5 21 C3.35 21 1.7 21 0 21 C0 14.07 0 7.14 0 0 Z " fill="#373737" transform="translate(911,807)"/>
<path d="M0 0 C1.65 0 3.3 0 5 0 C6.33912585 3.12254943 7.67030658 6.24842358 9 9.375 C9.3815625 10.26445313 9.763125 11.15390625 10.15625 12.0703125 C10.5171875 12.92109375 10.878125 13.771875 11.25 14.6484375 C11.58515625 15.43395996 11.9203125 16.21948242 12.265625 17.02880859 C13 19 13 19 13 21 C11.35 21 9.7 21 8 21 C7.67 19.35 7.34 17.7 7 16 C4.03 16 1.06 16 -2 16 C-2.33 17.65 -2.66 19.3 -3 21 C-4.65 21 -6.3 21 -8 21 C-7.32512263 16.18080529 -5.42034091 12.08116134 -3.4375 7.6875 C-2.9434668 6.57665039 -2.9434668 6.57665039 -2.43945312 5.44335938 C-1.63082877 3.62688438 -0.81602884 1.81316069 0 0 Z " fill="#474747" transform="translate(577,807)"/>
<path d="M0 0 C4.95 0 9.9 0 15 0 C15 1.32 15 2.64 15 4 C11.37 4 7.74 4 4 4 C4 5.32 4 6.64 4 8 C7.3 8 10.6 8 14 8 C14 9.65 14 11.3 14 13 C10.7 13 7.4 13 4 13 C4 14.32 4 15.64 4 17 C7.63 17 11.26 17 15 17 C15 18.32 15 19.64 15 21 C10.05 21 5.1 21 0 21 C0 14.07 0 7.14 0 0 Z " fill="#383838" transform="translate(1005,807)"/>
<path d="M0 0 C4.95 0 9.9 0 15 0 C15 1.32 15 2.64 15 4 C11.37 4 7.74 4 4 4 C4 5.32 4 6.64 4 8 C7.3 8 10.6 8 14 8 C14 9.65 14 11.3 14 13 C10.7 13 7.4 13 4 13 C4 14.32 4 15.64 4 17 C7.63 17 11.26 17 15 17 C15 18.32 15 19.64 15 21 C10.05 21 5.1 21 0 21 C0 14.07 0 7.14 0 0 Z " fill="#373737" transform="translate(944,807)"/>
<path d="M0 0 C4.95 0 9.9 0 15 0 C15 1.32 15 2.64 15 4 C11.37 4 7.74 4 4 4 C4 5.32 4 6.64 4 8 C7.3 8 10.6 8 14 8 C14 9.65 14 11.3 14 13 C10.7 13 7.4 13 4 13 C4 14.32 4 15.64 4 17 C7.63 17 11.26 17 15 17 C15 18.32 15 19.64 15 21 C10.05 21 5.1 21 0 21 C0 14.07 0 7.14 0 0 Z " fill="#383838" transform="translate(717,807)"/>
<path d="M0 0 C1.22589844 0.01353516 1.22589844 0.01353516 2.4765625 0.02734375 C3.41628906 0.04474609 3.41628906 0.04474609 4.375 0.0625 C5.4375 1.9375 5.4375 1.9375 6.375 4.0625 C6.045 4.7225 5.715 5.3825 5.375 6.0625 C2.735 5.7325 0.095 5.4025 -2.625 5.0625 C-2.955 5.7225 -3.285 6.3825 -3.625 7.0625 C-2.99851562 7.24425781 -2.37203125 7.42601562 -1.7265625 7.61328125 C-0.90929687 7.86464844 -0.09203125 8.11601563 0.75 8.375 C1.56210937 8.61863281 2.37421875 8.86226562 3.2109375 9.11328125 C5.375 10.0625 5.375 10.0625 7.375 13.0625 C6.93055556 18.50694444 6.93055556 18.50694444 4.375 21.0625 C2.09765625 21.328125 2.09765625 21.328125 -0.5625 21.3125 C-1.43777344 21.31765625 -2.31304688 21.3228125 -3.21484375 21.328125 C-5.625 21.0625 -5.625 21.0625 -8.625 19.0625 C-8.295 17.7425 -7.965 16.4225 -7.625 15.0625 C-4.325 15.7225 -1.025 16.3825 2.375 17.0625 C2.045 16.0725 1.715 15.0825 1.375 14.0625 C-0.69411771 13.00538809 -0.69411771 13.00538809 -3.125 12.1875 C-7.47660663 10.3749071 -7.47660663 10.3749071 -8.8125 7.5625 C-8.60905704 4.84992714 -8.14868508 3.30793064 -6.625 1.0625 C-4.21954362 -0.14022819 -2.67503047 -0.03821472 0 0 Z " fill="#383838" transform="translate(870.625,806.9375)"/>
<path d="M0 0 C1.85546875 0.60546875 1.85546875 0.60546875 4 2 C5.30078125 4.86328125 5.30078125 4.86328125 6.3125 8.3125 C6.65925781 9.44300781 7.00601563 10.57351563 7.36328125 11.73828125 C8 15 8 15 7 20 C2.71 19.67 -1.58 19.34 -6 19 C-5.52877252 12.0886636 -2.79363994 6.27795839 0 0 Z " fill="#FDFDFD" transform="translate(623,721)"/>
<path d="M0 0 C1.65 0 3.3 0 5 0 C5 5.61 5 11.22 5 17 C8.3 17 11.6 17 15 17 C15 18.32 15 19.64 15 21 C10.05 21 5.1 21 0 21 C0 14.07 0 7.14 0 0 Z " fill="#383838" transform="translate(635,807)"/>
<path d="M0 0 C5.61 0 11.22 0 17 0 C17 1.32 17 2.64 17 4 C15.02 4 13.04 4 11 4 C11 9.61 11 15.22 11 21 C9.68 21 8.36 21 7 21 C7 15.39 7 9.78 7 4 C4.69 4 2.38 4 0 4 C0 2.68 0 1.36 0 0 Z " fill="#373737" transform="translate(542,807)"/>
<path d="M0 0 C2.625 0.25 2.625 0.25 4.4375 1.3125 C6.29536623 4.34375543 5.99633265 6.78422859 5.625 10.25 C4.4375 12.1875 4.4375 12.1875 2.625 13.25 C-0.27486477 13.68497972 -1.71443503 13.72183212 -4.125 12 C-5.59513929 9.94180499 -6.22561029 8.78962504 -6.375 6.25 C-3.35818241 0.35349288 -3.35818241 0.35349288 0 0 Z " fill="#FDFDFD" transform="translate(808.375,810.75)"/>
<path d="M0 0 C1.32 0 2.64 0 4 0 C4 6.93 4 13.86 4 21 C2.68 21 1.36 21 0 21 C0 14.07 0 7.14 0 0 Z " fill="#383838" transform="translate(664,807)"/>
<path d="M0 0 C1.65 0 3.3 0 5 0 C4.67 1.32 4.34 2.64 4 4 C2.68 4 1.36 4 0 4 C-0.33 5.65 -0.66 7.3 -1 9 C-2.65 9 -4.3 9 -6 9 C-5.75 6.625 -5.75 6.625 -5 4 C-3 2.8125 -3 2.8125 -1 2 C-0.67 1.34 -0.34 0.68 0 0 Z " fill="#383838" transform="translate(575,819)"/>
<path d="M0 0 C1.98 0 3.96 0 6 0 C6.66 1.32 7.32 2.64 8 4 C6 6 6 6 2.875 6.125 C1.451875 6.063125 1.451875 6.063125 0 6 C0 4.02 0 2.04 0 0 Z " fill="#FDFDFD" transform="translate(978,811)"/>
</svg>
